<svg xmlns="http://www.w3.org/2000/svg" xmlns:xlink="http://www.w3.org/1999/xlink" width="153" height="153" viewBox="0 0 153 153"><defs><path id="da15a" d="M1156 1576.5a22.5 22.5 0 1 1 45 0 22.5 22.5 0 0 1-45 0z"/><path id="da15d" d="M1172 1572v-1h9v1z"/><path id="da15e" d="M1172 1577v-1h8v1z"/><path id="da15f" d="M1172 1581v-1h6v1z"/><path id="da15g" d="M1184 1574.72l-.04-5.26c0-.8.56-1.48 1.3-1.66h.39v-.03c.88.02 1.6.78 1.6 1.7v5.25zm-.79 10.47h-12.47v-16.41c0-.53.44-.98.99-.98h12.1a2.5 2.5 0 0 0-.62 1.66zm4.79-15.73a2.41 2.41 0 0 0-2.36-2.46h-13.91c-.94 0-1.73.8-1.73 1.78V1586h14v-10.47h4z"/><mask id="da15c" width="2" height="2" x="-1" y="-1"><path fill="#fff" d="M1156 1554h45v45h-45z"/><use xlink:href="#da15a"/></mask><filter id="da15b" width="235" height="287" x="1061" y="1459" filterUnits="userSpaceOnUse"><feOffset dy="52" in="SourceGraphic" result="FeOffset1108Out"/><feGaussianBlur in="FeOffset1108Out" result="FeGaussianBlur1109Out" stdDeviation="34 34"/></filter></defs><g><g transform="translate(-1103 -1552)"><g><g filter="url(#da15b)"><use fill="none" stroke-opacity=".09" stroke-width="0" mask="url(&quot;#da15c&quot;)" xlink:href="#da15a"/><use fill-opacity=".09" xlink:href="#da15a"/></g><use fill="#cd457e" xlink:href="#da15a"/></g><g><g><use fill="#fff" xlink:href="#da15d"/></g><g><use fill="#fff" xlink:href="#da15e"/></g><g><use fill="#fff" xlink:href="#da15f"/></g><g><use fill="#fff" xlink:href="#da15g"/></g></g></g></g></svg>