<svg xmlns="http://www.w3.org/2000/svg" xmlns:xlink="http://www.w3.org/1999/xlink" width="27" height="27" viewBox="0 0 27 27"><defs><path id="opzwa" d="M674.31 2490.47l1-.75c.34.48.17.26.65.88l-1 .75zm-10.22 10.24c-.69.57-1.59.53-2.02-.04-.43-.62-.21-1.54.52-2.07l10.87-7.74.85 1.28zm9.45-15c2.58-1.97 1.98-1.49 3-2.28l5.5 7.83-2.96 2.28c-.64-.79-5.54-7.82-5.54-7.82zm-1.12-.27l-.81-1.18 4.17-3.2.81 1.18-.26.18c-1.5 1.14-.73.57-3.9 3.02zm10.7 6.08l.83 1.19-4.18 3.2-.82-1.18s.48-.35 4.18-3.2zm-7.73.62l1.03-.8 1.93 2.78-.25.17c-.18.13-.22.4-.1.62l1.34 1.89c.09.09.17.17.3.17h.09c.08 0 .17-.04.26-.08l4.85-3.74c.17-.13.21-.4.09-.62l-1.38-1.89c-.09-.09-.17-.17-.3-.17-.13 0-.22 0-.34.08l-.22.18-5.45-7.83.25-.17c.18-.14.22-.4.09-.62l-1.33-1.93c-.09-.1-.17-.18-.3-.18-.13 0-.22 0-.35.09l-4.8 3.74c-.18.13-.22.4-.1.61l1.34 1.9c.08.08.17.17.3.17h.08c.1 0 .18-.05.26-.09l.26-.18 1.93 2.77-1.07.84a.4.4 0 0 0-.39.04l-11.3 7.96c-1.11.8-1.46 2.29-.72 3.3.73 1.01 2.19 1.14 3.22.27l10.6-8.89c.14-.09.18-.26.18-.4z"/><path id="opzwb" d="M677.53 2506.16v-3.42h9.63v3.42zm1.68-6.3h6.28v2.03h-6.28zm8.37 2.03h-1.26v-2.46c0-.26-.17-.43-.42-.43h-7.1c-.26 0-.43.17-.43.43v2.46h-1.26c-.25 0-.42.17-.42.43v3.83H669v.85h19v-4.68c0-.26-.17-.43-.42-.43z"/></defs><g><g transform="translate(-661 -2480)"><g><use fill="#fff" xlink:href="#opzwa"/></g><g><use fill="#fff" xlink:href="#opzwb"/></g></g></g></svg>