<svg xmlns="http://www.w3.org/2000/svg" xmlns:xlink="http://www.w3.org/1999/xlink" width="153" height="153" viewBox="0 0 153 153"><defs><path id="2dyha" d="M776 1575.5a22.5 22.5 0 1 1 45 0 22.5 22.5 0 0 1-45 0z"/><path id="2dyhd" d="M797.87 1568.44c.18.49.65.4.7.4.3-.08.49-.38.41-.67l-1.29-4.76a.57.57 0 0 0-.7-.4l-5.05 1.23a.54.54 0 0 0-.4.66c.07.29.38.46.69.38l3.93-.94-5.01 6.99-1.71-3.9c-.07-.23-.58-.56-.99-.13l-6.33 7.84c-.2.24-.15.57.1.76.11.07.5.23.81-.1l5.73-7.1 1.73 3.96a.6.6 0 0 0 1 .1l5.49-7.63z"/><path id="2dyhe" d="M801.5 1575.34c-3.91 0-6.4-1.25-6.4-2.1 0-.85 2.49-2.1 6.4-2.1 3.9 0 6.4 1.25 6.4 2.1-.01.85-2.5 2.1-6.4 2.1zm6.4 1.4c0 .86-2.5 2.1-6.4 2.1-3.92 0-6.4-1.24-6.4-2.1v-1.76c1.4.97 3.95 1.49 6.4 1.49 2.5 0 5-.5 6.4-1.46zm0 3.52c0 .85-2.5 2.09-6.4 2.09-3.92 0-6.4-1.24-6.4-2.1v-1.76c1.4.97 3.95 1.49 6.4 1.49 2.5 0 5-.5 6.4-1.46zm0 3.5c0 .86-2.5 2.1-6.4 2.1-3.92 0-6.4-1.24-6.4-2.1V1582c1.4.97 3.95 1.49 6.4 1.49 2.5 0 5-.5 6.4-1.46zm-6.4-13.76c-3.64 0-7.5 1.13-7.5 3.23v10.54c0 2.1 3.86 3.23 7.5 3.23 3.73 0 7.5-1.11 7.5-3.23v-10.54c0-2.12-3.77-3.23-7.5-3.23z"/><mask id="2dyhc" width="2" height="2" x="-1" y="-1"><path fill="#fff" d="M776 1553h45v45h-45z"/><use xlink:href="#2dyha"/></mask><filter id="2dyhb" width="235" height="287" x="681" y="1458" filterUnits="userSpaceOnUse"><feOffset dy="52" in="SourceGraphic" result="FeOffset1074Out"/><feGaussianBlur in="FeOffset1074Out" result="FeGaussianBlur1075Out" stdDeviation="34 34"/></filter></defs><g><g transform="translate(-723 -1551)"><g><g filter="url(#2dyhb)"><use fill="none" stroke-opacity=".09" stroke-width="0" mask="url(&quot;#2dyhc&quot;)" xlink:href="#2dyha"/><use fill-opacity=".09" xlink:href="#2dyha"/></g><use fill="#cd457e" xlink:href="#2dyha"/></g><g><g><use fill="#fff" xlink:href="#2dyhd"/></g><g><use fill="#fff" xlink:href="#2dyhe"/></g></g></g></g></svg>