<svg xmlns="http://www.w3.org/2000/svg" xmlns:xlink="http://www.w3.org/1999/xlink" width="20" height="21" viewBox="0 0 20 21"><defs><path id="4gn7a" d="M668 2609v-1h10v1z"/><path id="4gn7b" d="M668 2615v-1h9v1z"/><path id="4gn7c" d="M668 2619v-1h7v1z"/><path id="4gn7d" d="M681.55 2612.53l-.04-5.8c0-.9.62-1.65 1.44-1.84h.43v-.04c1 .02 1.8.86 1.8 1.87v5.81zm-.89 11.58h-13.83v-18.15c0-.58.48-1.07 1.09-1.07h13.42a2.76 2.76 0 0 0-.68 1.83zm5.34-17.39c0-1.5-1.15-2.7-2.62-2.72h-15.46c-1.05 0-1.92.9-1.92 1.97V2625h15.55v-11.58H686z"/></defs><g><g transform="translate(-666 -2604)"><use fill="#fff" xlink:href="#4gn7a"/></g><g transform="translate(-666 -2604)"><use fill="#fff" xlink:href="#4gn7b"/></g><g transform="translate(-666 -2604)"><use fill="#fff" xlink:href="#4gn7c"/></g><g transform="translate(-666 -2604)"><use fill="#fff" xlink:href="#4gn7d"/></g></g></svg>