<svg xmlns="http://www.w3.org/2000/svg" xmlns:xlink="http://www.w3.org/1999/xlink" width="111" height="28" viewBox="0 0 111 28"><defs><path id="31qaa" d="M1282.42 6370.3c-.7 0-1.18.14-1.18.14v1.25h.15c.4.01.56.12.56.51v5.03h1.95v-5.46c0-1.01-.47-1.47-1.48-1.47zm-.65-2.05c0 .52.31 1.02 1.05 1.02s1.05-.5 1.05-1.03c0-.54-.3-1-1.05-1s-1.05.46-1.05 1.01zm14.91.64v1.55h-.89v1.51h.9v2.96c0 1.65.71 2.46 2.26 2.46.68 0 1.11-.14 1.11-.14v-1.43s-.23.05-.5.05c-.66 0-.94-.3-.94-.98v-2.92h1.47v-1.51h-1.47v-1.78zm8 6.46s-.4.56-1.22.56c-.48 0-.81-.26-.81-.73 0-.55.37-.85 1.32-.9h.7zm2.67.65h-.13c-.4 0-.6-.1-.6-.53v-2.63c0-1.75-.9-2.54-3.08-2.54-1.27 0-2.25.35-2.25.35v1.44s.98-.32 2.02-.32 1.37.4 1.37 1.19v.16l-1.19.02c-1.7.04-2.75.82-2.75 2.19 0 1.26.84 2.05 2.19 2.05 1.15 0 1.79-.7 2.05-1.05.16.75.56 1.05 1.4 1.05.57 0 .97-.14.97-.14zm3.51-.1c-.43 0-.6-.18-.6-.8v-6.68c0-.94-.48-1.39-1.49-1.39-.66 0-1.15.16-1.15.16v1.23c.03 0 .16 0 .2.02.34.01.5.13.5.51v6.45c0 1.28.53 1.97 1.72 1.97.63 0 1-.14 1-.14v-1.33zm-17.57-5.6c-.7 0-1.19.14-1.19.14v1.25h.16c.39.01.56.12.56.51v5.03h1.94v-5.46c0-1.01-.47-1.47-1.47-1.47zm-5.29 3.46c-.64 0-1.07-.44-1.07-1.14 0-.68.38-1.14 1.07-1.14.65 0 1.06.45 1.06 1.14 0 .7-.45 1.14-1.06 1.14zm.18 3.53c.92.05 1.5.19 1.5.8 0 .55-.63.92-1.5.92-1.07 0-1.56-.4-1.56-.98 0-.41.2-.69.48-.83.34.05.71.07 1.08.1zm3.33-5.68v-1.23l-2.06.18c-.4-.16-.89-.26-1.45-.26-1.85 0-2.85 1.09-2.85 2.34 0 .84.42 1.54 1.17 1.93-.44.21-.85.65-.85 1.23 0 .5.22.84.57 1.06-.52.24-1.03.73-1.03 1.48 0 1.08.94 1.93 3.05 1.93 1.87 0 3.35-.93 3.35-2.46 0-1.13-.7-1.6-1.6-1.83-.47-.13-.99-.2-1.52-.22-.73-.04-1.17-.15-1.17-.49 0-.17.1-.29.24-.4.2.05.43.07.67.07 1.67 0 2.82-.97 2.82-2.29 0-.35-.08-.72-.27-1.04zm1.13-3.36c0 .52.3 1.02 1.04 1.02s1.06-.5 1.06-1.03c0-.54-.3-1-1.06-1-.74 0-1.04.46-1.04 1.01zm-16.72 7.18h-.85v-5.83h.85c1.52 0 2.44 1 2.44 2.91 0 1.9-.92 2.92-2.44 2.92zm-.09-7.62h-2.73v9.41h2.73c3.07 0 4.58-1.93 4.58-4.7 0-2.78-1.51-4.71-4.58-4.71zm-33.05 2.49c-1.29 0-1.92 1-1.92 1-.34-.62-.95-1-1.9-1-.9 0-1.58.46-1.92 1.05-.12-.72-.55-1.05-1.39-1.05-.6 0-.99.14-.99.14v1.25h.17c.37.01.55.1.55.51v5.03h1.94v-4.75s.4-.51 1.04-.51c.7 0 .91.47.91 1.13v4.13h1.93v-4.1c0-.19-.01-.39-.04-.57 0 0 .34-.6 1.06-.6.7 0 .91.48.91 1.13v4.14h1.95v-4.38c0-1.51-.74-2.55-2.3-2.55zm-14.62 6.92h5.63v-1.75h-3.66v-2.18h2.99v-1.68h-2.99v-2.05h3.66v-1.75h-5.63zm27.06-6.92c-.71 0-1.2.14-1.2.14v1.25h.16c.4.01.57.12.57.51v5.03h1.95v-5.46c0-1.01-.47-1.47-1.48-1.47zm1.44-2.06c0-.54-.3-1-1.06-1-.74 0-1.04.46-1.04 1.01 0 .52.31 1.02 1.04 1.02.75 0 1.06-.5 1.06-1.03zm3.49 3.1c-.17-.82-.67-1.04-1.4-1.04-.6 0-1 .14-1 .14v1.25h.13c.41 0 .6.1.6.51v5.03h1.94v-4.66c.21-.3.66-.59 1.3-.59.44 0 .75.1.75.1v-1.64s-.2-.14-.66-.14c-.6 0-1.26.35-1.66 1.05zm-10.28 4.48c-.61 0-.95-.29-1.1-.38v-2.9s.33-.6 1.13-.6c.94 0 1.33.73 1.33 1.87 0 1.27-.5 2.01-1.36 2.01zm.62-5.52a2.3 2.3 0 0 0-2.01 1.05c-.12-.72-.55-1.05-1.39-1.05-.6 0-1 .14-1 .14v1.25h.13c.4 0 .6.1.6.52v7.97h1.94v-3.34c.36.29.86.54 1.6.54 2 0 2.88-1.66 2.88-3.65 0-1.87-.72-3.43-2.75-3.43zm14.41 2.88c.1-1 .51-1.47 1.24-1.47.72 0 1.11.5 1.1 1.47zm4.13.13c0-1.47-.7-3.01-2.87-3.01-2 0-3.2 1.38-3.2 3.63 0 2.11 1.24 3.45 3.52 3.45 1.39 0 2.25-.4 2.25-.4v-1.39s-.88.35-1.87.35c-1.2 0-1.87-.52-1.97-1.57h4.09s.05-.32.05-1.06zm-62.1 4.2l1.6-.67-1-2.38h2.76v2.38h1.72v-2.38h2.75l-.99 2.38 1.6.67.99-2.38 2.08 2.1v-9.44l-4.55 4.58-2.74-6.58-2.74 6.58-4.55-4.58v9.44l2.09-2.1z"/><path id="31qab" d="M1222.2 6360a11 11 0 0 1-11.1 0 11 11 0 0 1-11.1 0v16.6c0 7.49 11.1 11.4 11.1 11.4s11.1-3.91 11.1-11.4V6360zm-11.1 2.2a13 13 0 0 0 9.16.74v13.65c0 2.4-1.56 4.72-4.64 6.86a25.08 25.08 0 0 1-4.52 2.45 25.08 25.08 0 0 1-4.51-2.45c-3.08-2.14-4.64-4.45-4.64-6.86v-13.65a12.99 12.99 0 0 0 9.15-.73z"/></defs><g><g transform="translate(-1200 -6360)"><g><use fill="#6d6d6d" xlink:href="#31qaa"/></g><g><use fill="#6d6d6d" xlink:href="#31qab"/></g></g></g></svg>