<svg xmlns="http://www.w3.org/2000/svg" xmlns:xlink="http://www.w3.org/1999/xlink" width="100" height="60" viewBox="0 0 100 60"><defs><path id="u06ta" d="M264.5 6135.41c-.3-.14-.6-.44-.9-.89-.3-.44-.35-.9-.1-1.39.6-.94 12.48-6.94 15.01-8.18a88.46 88.46 0 0 1 9.05-3.72c3.48-1.24 7.16-2.39 11.08-3.38a115.7 115.7 0 0 1 10.89-2.38c3.33-.54 11.38-1.24 13.72-1.29 2.78-.1 5.67-.45 5.91.65.1.3.6 1.73-.84 1.83-3.68.5-14.62 1.69-19.09 2.73-4.47 1.04-8.9 2.18-13.27 3.42-4.33 1.24-8.4 2.53-12.18 3.92-3.78 1.4-17.05 7.54-19.29 8.68z"/><path id="u06tb" d="M248.39 6128.22c.3-3.77.7-7.54 1.24-11.31l1.49-11.11c.5-3.63 1-7.1 1.54-10.42.55-3.33 1-6.4 1.34-9.28.1-.54.3-.94.65-1.19a1.6 1.6 0 0 1 1.14-.3c.4 0 .75.15 1.1.45.3.25.5.6.5 1 .1.88.04 2.42-.16 4.6-.24 2.19-.54 4.72-.94 7.55l-1.3 8.98c-.44 3.17-.89 6.15-1.29 8.93-.4 2.82-.7 5.25-.94 7.39-.25 2.13-.3 3.57-.25 4.36a39.53 39.53 0 0 1 7.7-3.02 16.9 16.9 0 0 1 8.16-.25c.4.1 1 1.09.74 1.54-.3.4-.6.54-.94.44a17.67 17.67 0 0 0-5.77.25c-2.08.4-3.67.9-4.92 1.49-.8.35-1.64.8-2.58 1.29-.95.5-1.8 1.1-2.64 1.69-.84.64-1.59 1.34-2.28 2.08-.7.74-1.3 1.59-1.7 2.48-.1.2-.1.4-.04.55.05.14.15.3.25.44.1.15.14.3.14.4 0 .15-.14.25-.34.35-.9.2-1.94-.7-2.14-1.14-.2-.45-.15-1.05.15-1.79s.74-1.54 1.34-2.43l.4-.5z"/><path id="u06tc" d="M268.37 6112.36c0 .05.1.1.2.05.04 0 .2-.15.4-.35.2-.25.39-.55.54-.95.15-.4.3-.84.4-1.39.1-.54.1-1.1-.05-1.64-.3.65-.55 1.3-.8 1.99-.25.7-.45 1.4-.6 2.14zm9.3-5.91c.29.15.34.64.14 1.48-.2.85-.5 1.89-.94 3.08-.45 1.2-1 2.53-1.64 3.87a98.49 98.49 0 0 1-2 3.97 8.84 8.84 0 0 1-3.67 3.82c-1.54.84-2.88 1-4.08.5-1.14-.5-1.94-1.8-2.28-3.82-.35-2.04.15-5.02 1.59-8.98.5-1.4 1.24-2.58 2.18-3.58a8.3 8.3 0 0 1 2.89-2.08c.94-.4 1.79-.45 2.43-.15.65.3.95 1 .8 2.13-.2 1.3-.7 2.63-1.5 4.07a6.15 6.15 0 0 1-3.02 2.93c-.4.15-.55.4-.55.8-.05.39-.1.99-.15 1.73-.05.74-.05 1.49 0 2.23.05.7.15 1.34.35 1.84.2.5.44.7.84.64 1.6-1.09 3.03-2.97 4.28-5.7a65.77 65.77 0 0 0 3.28-8.68c.1-.1.3-.15.5-.25.2.05.4.05.54.15z"/><path id="u06td" d="M282.84 6097.26c-.3.45-.5.85-.7 1.24-.2.4-.35.85-.6 1.24-.3.45-.74.7-1.39.75-.3.1-.6.05-.8-.15-.2-.2-.3-.4-.2-.6l.3-1.19c.1-.4.2-.79.3-1.09.1-.25.35-.44.75-.5.65-.14 1.34-.1 2.19.1.1.06.15.1.15.2zm-4.03 5.46c.3-.25.6-.35.95-.3.35.05.64.05 1 .05.84.1 1.23.6 1.14 1.54l-.4 3.87c-.1.84-.2 1.69-.35 2.48-.15.8-.25 1.64-.35 2.48-.1.8-.15 1.4-.25 1.74l-.15 1c-.05.29-.1.64-.1.98 0 .35-.1.95-.2 1.74-.1.74-.5 1.14-1.09 1.29l-1.04.15c-.4.05-.75.05-1.1-.05-.5-.15-.74-.3-.84-.45-.1-.15-.2-.5-.3-.99-.05-.6-.1-1.14-.05-1.74.05-.6.05-1.14.15-1.68.05-.85.05-1.54.1-2.04l.15-1.34c.05-.4.1-.84.2-1.34.05-.5.15-1.19.25-2.03.1-.74.24-1.39.44-2.03.2-.65.35-1.34.55-2.09-.05-.5.45-.94 1.3-1.24z"/><path id="u06te" d="M293.97 6080.84c-.8 2.68-1.5 5.26-2.04 7.74-.55 2.48-1 4.72-1.34 6.65-.35 1.94-.6 3.52-.7 4.71-.1 1.2-.2 1.84-.15 1.99.3-.25.85-.8 1.6-1.64.74-.84 1.53-1.78 2.28-2.73.8-.94 1.5-1.83 2.14-2.68.64-.84.94-1.34 1-1.58 0-.15.14-.2.44-.25a1 1 0 0 1 .7.1c.4.2.4.74-.05 1.63-.45.9-1.1 1.84-1.9 2.93a37.55 37.55 0 0 1-2.48 2.98c-.84.94-1.44 1.54-1.79 1.88-.7.7-1.24 1.2-1.69 1.54-.45.35-.6.8-.45 1.44.15.65.65 1.59 1.5 2.88.84 1.29 2.13 3.22 3.87 5.85.25.4.35.75.25 1.04-.1.3-.3.45-.6.5-.3.05-.7-.05-1.14-.25-.45-.2-.9-.54-1.3-1.09-.39-.6-.84-1.19-1.23-1.84-.4-.64-.8-1.19-1.15-1.63-.34-.6-.7-1.2-1.04-1.74.05-.15.05-.1 0 .1-.05.15-.1.45-.15.9-.05.44-.2 1.18-.35 2.18-.2.94-.35 1.73-.44 2.38-.1.64-.25 1.14-.45 1.59-.2.44-.5.74-.85.89-.35.2-.9.3-1.64.35-.8 0-1.2-.25-1.24-.7-.05-.45 0-1.04.1-1.79.45-4.31.94-8.33 1.49-12.1.6-3.77 1.14-7.14 1.69-10.07.55-2.93 1.1-5.4 1.54-7.44.45-1.99.9-3.43 1.2-4.22.2-.4.54-.74 1.04-.94.5-.2 1-.3 1.59-.3.55 0 1 .05 1.34.2.35.05.45.25.4.54z"/><path id="u06tf" d="M299.59 6110.95c.05-.15.2-.7.54-1.68.35-1 .7-2.09 1.1-3.23.4-1.14.74-2.23 1.1-3.22.34-1 .49-1.59.44-1.79-.75.3-1.4.94-1.94 2.04a14.72 14.72 0 0 0-1.24 3.42c-.3 1.19-.45 2.28-.5 3.22-.05.95.05 1.4.25 1.44.1-.1.2-.15.25-.2zm13.27-11.9c.05-.35.3-.5.7-.45.4.05.54.3.44.8-.9 5.45-1.94 9.27-3.08 11.5-1.14 2.24-2.24 3.38-3.23 3.48-1 .05-1.84-.7-2.54-2.34-.7-1.58-.99-3.52-.89-5.7.05-1.44-.05-2.13-.2-2.03-.2.1-.4.54-.7 1.29-.3.74-.54 1.58-.79 2.58-.25.99-.4 1.53-.5 1.78a8.54 8.54 0 0 1-1.79 3.28c-.74.79-1.69 1.09-2.83.99-.45-.05-.85-.5-1.14-1.3a10.4 10.4 0 0 1-.5-3.02c-.05-1.19.1-2.48.35-3.87.3-1.39.74-2.68 1.29-3.87a8.6 8.6 0 0 1 2.39-2.92c.99-.8 2.23-1.15 3.67-1.15.4 0 .65-.44.85-1.34 0-.2.3-.34.75-.5a6.44 6.44 0 0 1 2.93-.05c.4.1.6.3.6.6-.7 3.43-1.1 6.16-1.2 8.1-.1 1.98-.05 3.41.1 4.3.2.95.45 1.45.75 1.6.34.14.54.1.7-.15.59-.65 1.14-2.04 1.68-4.17.7-2.18 1.34-4.67 2.19-7.44z"/><path id="u06tg" d="M292.38 6134.47c-.1.1-.15.2-.15.35v2.78c0 .15.05.25.15.35.4.45.9.65 1.6.65 1.09 0 1.83-.85 1.83-2.09v-.6c0-1.24-.74-2.08-1.84-2.08-.7 0-1.2.25-1.59.64zm-1.24-4.06c0-.1.05-.15.15-.15h.8c.1 0 .14.05.14.15v3.22c0 .05.05.1.1.05.45-.5 1.05-.74 1.84-.74.75 0 1.4.3 1.94.84.55.55.8 1.3.8 2.14v.64c0 .9-.25 1.64-.8 2.18-.5.55-1.14.8-1.94.8-.74 0-1.39-.25-1.89-.8-.05-.05-.1-.05-.1.05l-.05.6c0 .05-.05.1-.14.1h-.7c-.1 0-.15-.05-.15-.15v-8.93z"/><path id="u06th" d="M299.44 6133.18c0-.1.05-.15.15-.15h.8c.1 0 .14.05.14.15v3.77c0 1.09.45 1.59 1.4 1.59.6 0 1.09-.25 1.54-.7.1-.1.15-.2.15-.35v-4.36c0-.1.05-.15.14-.15h.8c.1 0 .15.05.15.15v6.1c0 .1-.05.15-.15.15h-.7c-.05 0-.1-.05-.15-.1l-.04-.64c0-.05-.1-.05-.1-.05-.5.6-1.15.89-1.94.89-1.4 0-2.19-.9-2.19-2.53v-3.77z"/><path id="u06ti" d="M311.22 6133.43c.1.05.1.14.05.2l-.4.49c-.05.1-.15.1-.2.05a2 2 0 0 0-.99-.35c-.65 0-1 .4-1 .8v.05c0 .54.35.74 1.3.99.64.15 1.14.35 1.49.64.35.25.5.65.5 1.24v.05c0 1.1-.8 1.99-2.29 1.99-.8 0-1.54-.25-2.14-.7-.1-.05-.1-.1-.05-.2l.4-.5c.05-.1.15-.1.2-.04.45.35 1 .5 1.49.5.85 0 1.24-.45 1.24-1v-.1c0-.64-.4-.84-1.39-1.09-1.24-.3-1.84-.74-1.84-1.78v-.05c0-.5.2-.95.6-1.24.4-.35.9-.5 1.44-.5.6 0 1.14.2 1.6.55z"/><path id="u06tj" d="M314.2 6133.13c0-.1.05-.15.15-.15h.8c.1 0 .14.05.14.15v6.1c0 .1-.05.15-.15.15h-.8c-.1 0-.14-.05-.14-.15zm.15-2.28a.63.63 0 1 1 .9.89c-.26.2-.66.2-.9 0-.25-.3-.25-.65 0-.9z"/><path id="u06tk" d="M318.23 6133.13c0-.1.05-.15.15-.15h.7c.1 0 .14.05.14.1l.05.64c0 .05.1.05.1.05.5-.6 1.2-.84 2.04-.84 1.44 0 2.24.9 2.24 2.53v3.82c0 .1-.05.15-.15.15h-.8c-.1 0-.15-.05-.15-.15v-3.82c0-1.04-.5-1.59-1.44-1.59-.64 0-1.19.2-1.59.7-.1.1-.15.2-.15.34v4.37c0 .1-.05.15-.15.15h-.8c-.1 0-.14-.05-.14-.15v-6.15z"/><path id="u06tl" d="M327.22 6135.63c0 .1.05.1.1.1h3.33c.1 0 .1-.05.1-.1-.1-1.15-.7-1.85-1.74-1.85-1 0-1.69.7-1.79 1.85zm-1.09.24c0-.9.25-1.64.8-2.19a2.85 2.85 0 0 1 2.08-.84c.85 0 1.54.25 2.1.8.54.54.79 1.28.79 2.18v.44c0 .1-.05.15-.15.15h-4.43c-.1 0-.1.05-.1.1 0 1.24.8 2.04 2.04 2.04.5 0 .95-.15 1.34-.45a.15.15 0 0 1 .2 0l.55.45c.1.1.1.14 0 .2-.55.44-1.24.69-2.04.69-.94 0-1.69-.25-2.29-.85-.6-.54-.89-1.29-.89-2.18v-.54z"/><path id="u06tm" d="M338.16 6133.43c.1.05.1.14.05.2l-.4.49c-.05.1-.15.1-.2.05a2 2 0 0 0-.99-.35c-.65 0-1 .4-1 .8v.05c0 .54.35.74 1.3.99.64.15 1.14.35 1.49.64.35.25.5.65.5 1.24v.05c0 1.1-.8 1.99-2.29 1.99-.8 0-1.54-.25-2.14-.7-.1-.05-.1-.1-.05-.2l.4-.5c.05-.1.15-.1.2-.04.45.35 1 .5 1.49.5.85 0 1.24-.45 1.24-1v-.1c0-.64-.4-.84-1.39-1.09-1.24-.3-1.84-.74-1.84-1.78v-.05c0-.5.2-.95.6-1.24.4-.35.9-.5 1.44-.5.55 0 1.1.2 1.6.55z"/><path id="u06tn" d="M344.77 6133.43c.1.05.1.14.05.2l-.4.49c-.05.1-.15.1-.2.05a2 2 0 0 0-.99-.35c-.65 0-1 .4-1 .8v.05c0 .54.35.74 1.3.99.64.15 1.14.35 1.49.64.35.25.5.65.5 1.24v.05c0 1.1-.8 1.99-2.29 1.99-.8 0-1.54-.25-2.14-.7-.1-.05-.1-.1-.05-.2l.4-.5c.05-.1.15-.1.2-.04.45.35 1 .5 1.49.5.85 0 1.24-.45 1.24-1v-.1c0-.64-.4-.84-1.39-1.09-1.24-.3-1.84-.74-1.84-1.78v-.05c0-.5.2-.95.6-1.24.4-.35.9-.5 1.44-.5.55 0 1.1.2 1.6.55z"/></defs><g><g transform="translate(-246 -6080)"><g><g><g><g><use fill="#6d6d6d" xlink:href="#u06ta"/></g><g><use fill="#6d6d6d" xlink:href="#u06tb"/></g><g><use fill="#6d6d6d" xlink:href="#u06tc"/></g><g><use fill="#6d6d6d" xlink:href="#u06td"/></g><g><use fill="#6d6d6d" xlink:href="#u06te"/></g><g><use fill="#6d6d6d" xlink:href="#u06tf"/></g></g><g><g><use fill="#6d6d6d" xlink:href="#u06tg"/></g><g><use fill="#6d6d6d" xlink:href="#u06th"/></g><g><use fill="#6d6d6d" xlink:href="#u06ti"/></g><g><use fill="#6d6d6d" xlink:href="#u06tj"/></g><g><use fill="#6d6d6d" xlink:href="#u06tk"/></g><g><use fill="#6d6d6d" xlink:href="#u06tl"/></g><g><use fill="#6d6d6d" xlink:href="#u06tm"/></g><g><use fill="#6d6d6d" xlink:href="#u06tn"/></g></g></g></g></g></g></svg>