<svg xmlns="http://www.w3.org/2000/svg" xmlns:xlink="http://www.w3.org/1999/xlink" width="29" height="24" viewBox="0 0 29 24"><defs><path id="ov2sa" d="M423.63 1581.82l-5.46-5.9 3.27-2.1a.41.41 0 0 0 .07-.65h-.01a.43.43 0 0 0-.53-.06l-3.52 2.27-7.47-2.3 18.2-4.62-5.12 3.3a.42.42 0 0 0-.07.65c.14.15.36.17.53.06l1.87-1.2 4.21-2.72zm-6.96-1.61l-.9-4.47 1.5.47 2.07 2.23zm14.33-12.82l-.01-.06a.42.42 0 0 0-.02-.06v-.01a.43.43 0 0 0-.07-.1v-.01a.42.42 0 0 0-.23-.14h-.2l-22.15 5.62a.42.42 0 0 0-.32.4c0 .18.12.35.3.4l6.54 2.03 1.12 5.52a.42.42 0 0 0 .42.34c.08 0 .16-.03.23-.07l3.31-2.19 3.53 3.8a.43.43 0 0 0 .7-.11l6.81-15.16.03-.06v-.07c.01-.03.01-.05 0-.07z"/><path id="ov2sb" d="M409.58 1580h-6.16c-.23 0-.42.22-.42.5s.19.5.42.5h6.16c.23 0 .42-.22.42-.5s-.19-.5-.42-.5z"/><path id="ov2sc" d="M431.54 1585h-3.08c-.25 0-.46.22-.46.5s.2.5.46.5h3.08c.25 0 .46-.22.46-.5s-.2-.5-.46-.5z"/><path id="ov2sd" d="M414.5 1583h-4a.5.5 0 1 0 0 1h4a.5.5 0 1 0 0-1z"/><path id="ov2se" d="M415.45 1590h-2.9c-.3 0-.55.22-.55.5s.24.5.55.5h2.9c.3 0 .55-.22.55-.5s-.24-.5-.55-.5z"/></defs><g><g transform="translate(-403 -1567)"><g><use fill="#fff" xlink:href="#ov2sa"/></g><g><use fill="#fff" xlink:href="#ov2sb"/></g><g><use fill="#fff" xlink:href="#ov2sc"/></g><g><use fill="#fff" xlink:href="#ov2sd"/></g><g><use fill="#fff" xlink:href="#ov2se"/></g></g></g></svg>