<svg xmlns="http://www.w3.org/2000/svg" xmlns:xlink="http://www.w3.org/1999/xlink" viewBox="0 0 300 300">
  <defs>
    <style>
      .cls-1 {
        fill: #cd457e;
      }

      .cls-2 {
        fill: #fff;
      }

      .cls-3 { 
        filter: url(#Oval_3);
      }
    </style>
    <filter id="Oval_3" x="0" y="0" width="300" height="300" filterUnits="userSpaceOnUse">
      <feOffset dy="52" input="SourceAlpha"/>
      <feGaussianBlur stdDeviation="42.5" result="blur"/>
      <feFlood flood-opacity="0.086"/>
      <feComposite operator="in" in2="blur"/>
      <feComposite in="SourceGraphic"/>
    </filter>
  </defs>
  <g id="icon_plane" data-name="icon/plane" transform="translate(127.5 75.5)">
    <g class="cls-3" transform="matrix(1, 0, 0, 1, -127.5, -75.5)">
      <circle id="Oval_3-2" data-name="Oval 3" class="cls-1" cx="22.5" cy="22.5" r="22.5" transform="translate(127.5 75.5)"/>
    </g>
    <g id="paper-plane" transform="translate(7 13)">
      <path id="Shape" class="cls-2" d="M15.759,16a.426.426,0,0,1-.313-.137l-3.523-3.8L8.613,14.245a.431.431,0,0,1-.237.07.424.424,0,0,1-.418-.338L6.843,8.458.3,6.437a.42.42,0,0,1,.022-.81L22.468.014A.439.439,0,0,1,22.531,0h.005l.039,0H22.6a.442.442,0,0,1,.067.009.468.468,0,0,1,.066.02A.427.427,0,0,1,22.9.147l0,0a.449.449,0,0,1,.036.05.036.036,0,0,1,0,.008.4.4,0,0,1,.023.043.022.022,0,0,0,0,.009c0,.006,0,.008,0,.009a.4.4,0,0,1,.018.058A.491.491,0,0,1,23,.392a.369.369,0,0,1,0,.063V.463a.527.527,0,0,1-.01.059l0,.01a.512.512,0,0,1-.02.057L16.149,15.75a.426.426,0,0,1-.32.245A.451.451,0,0,1,15.759,16ZM13.2,6.041a.419.419,0,0,1,.3.122l.006.006a.413.413,0,0,1-.068.643l-3.273,2.11,5.468,5.9L21.6,1.552,17.387,4.268l-1.864,1.2a.432.432,0,0,1-.535-.055.419.419,0,0,1,.068-.651l5.121-3.3L1.984,6.075,9.448,8.381l3.523-2.272A.425.425,0,0,1,13.2,6.041Zm-5.434,2.7.9,4.451,2.67-1.759L9.275,9.21Z" transform="translate(5)"/>
      <path id="Shape-2" data-name="Shape" class="cls-2" d="M6.58,0H.42A.465.465,0,0,0,0,.5.465.465,0,0,0,.42,1H6.58A.465.465,0,0,0,7,.5.465.465,0,0,0,6.58,0Z" transform="translate(0 13)"/>
      <path id="Shape-3" data-name="Shape" class="cls-2" d="M3.538,0H.462A.482.482,0,0,0,0,.5.482.482,0,0,0,.462,1H3.538A.482.482,0,0,0,4,.5.482.482,0,0,0,3.538,0Z" transform="translate(25 18)"/>
      <path id="Shape-4" data-name="Shape" class="cls-2" d="M4.5,0H.5a.5.5,0,0,0,0,1h4a.5.5,0,0,0,0-1Z" transform="translate(7 16)"/>
      <path id="Shape-5" data-name="Shape" class="cls-2" d="M3.455,0H.545A.524.524,0,0,0,0,.5.524.524,0,0,0,.545,1H3.455A.524.524,0,0,0,4,.5.524.524,0,0,0,3.455,0Z" transform="translate(9 23)"/>
    </g>
  </g>
</svg>
