<svg xmlns="http://www.w3.org/2000/svg" xmlns:xlink="http://www.w3.org/1999/xlink" width="172" height="50" viewBox="0 0 172 50"><defs><path id="ytzpa" d="M720 4994a10 10 0 0 1 10-10h152a10 10 0 0 1 10 10v30a10 10 0 0 1-10 10H730a10 10 0 0 1-10-10z"/><path id="ytzpc" d="M880.01 5008.98c-.4-.48-.99-.72-1.73-.72-.7 0-1.3.25-1.8.75s-.8 1.17-.94 2h5.1a3.1 3.1 0 0 0-.63-2.03zm-4.49 3.32c.03 1.06.31 1.87.85 2.43.54.57 1.28.85 2.23.85 1.07 0 2.05-.35 2.93-1.03v1.4c-.83.62-1.92.92-3.29.92-1.34 0-2.4-.44-3.15-1.3a5.32 5.32 0 0 1-1.13-3.62c0-.93.19-1.78.56-2.55.38-.78.9-1.37 1.57-1.8.66-.42 1.4-.63 2.2-.63 1.23 0 2.19.4 2.87 1.19.69.8 1.03 1.91 1.03 3.34v.8zm-3.6-3.88c-.66 0-1.2.32-1.62.95a4.36 4.36 0 0 0-.63 2.45v4.82h-1.51v-9.44h1.51v1.94h.04c.2-.65.53-1.16.96-1.54.44-.38.94-.57 1.5-.57.4 0 .7.04.91.13v1.57a1.9 1.9 0 0 0-1.15-.3zm-7.7.79a2.76 2.76 0 0 0-2.24-.95 2.9 2.9 0 0 0-2.3.97 4.04 4.04 0 0 0-.85 2.74c0 1.13.28 2.02.85 2.65.57.64 1.33.96 2.3.96.98 0 1.73-.31 2.25-.94.52-.63.78-1.53.78-2.7 0-1.2-.26-2.1-.78-2.73zm1.07 6.29c-.85.91-2 1.37-3.43 1.37-1.39 0-2.5-.44-3.33-1.33a4.92 4.92 0 0 1-1.25-3.51c0-1.56.42-2.8 1.28-3.7a4.6 4.6 0 0 1 3.53-1.36c1.4 0 2.5.43 3.28 1.3.8.88 1.2 2.09 1.2 3.61 0 1.5-.43 2.7-1.28 3.62zm-10.56 1.35c-1.65 0-2.47-.93-2.47-2.79v-5.58h-1.63v-1.28h1.63v-2.3l1.51-.5v2.8h2.39v1.28h-2.39v5.33c0 .63.11 1.08.33 1.35.21.27.57.4 1.08.4.37 0 .7-.1.98-.3v1.29c-.37.2-.84.3-1.43.3zm-19.23-.75c-.63.51-1.47.77-2.51.77-.9 0-1.68-.2-2.35-.57v-1.63c.75.6 1.57.9 2.46.9 1.2 0 1.8-.43 1.8-1.31 0-.36-.12-.65-.35-.87a6.71 6.71 0 0 0-1.6-.91 4.72 4.72 0 0 1-1.77-1.15c-.34-.4-.52-.95-.52-1.63 0-.78.32-1.43.94-1.95a3.61 3.61 0 0 1 2.4-.78c.74 0 1.4.14 2.01.44v1.52a3.54 3.54 0 0 0-2.14-.67c-.5 0-.9.12-1.2.37-.3.24-.46.56-.46.94 0 .42.12.74.35.97.24.22.72.49 1.45.8.9.38 1.53.78 1.89 1.2.36.41.54.94.54 1.57 0 .82-.31 1.48-.94 2zm13.22-.17c-.79.63-1.86.95-3.2.95-.5 0-1.06-.08-1.67-.25a4.45 4.45 0 0 1-1.32-.5v-1.84c.38.33.87.62 1.48.84a4.9 4.9 0 0 0 1.71.35c1.7 0 2.55-.67 2.55-1.99 0-.55-.18-1.03-.55-1.42-.36-.4-1.1-.92-2.23-1.57a7.85 7.85 0 0 1-2.28-1.75 3.15 3.15 0 0 1-.66-2.02c0-1.05.4-1.9 1.17-2.55a4.55 4.55 0 0 1 3.03-.99c1.18 0 2.05.16 2.6.47v1.74a4.22 4.22 0 0 0-2.69-.81 2.8 2.8 0 0 0-1.79.55c-.46.36-.7.85-.7 1.45 0 .44.07.79.21 1.05.14.27.37.53.7.79.33.26.89.6 1.67 1.04a8.57 8.57 0 0 1 2.45 1.84c.47.58.7 1.25.7 2 0 1.11-.4 1.98-1.18 2.62zm-21.55.7h-1.57l-1.94-6.75a4.67 4.67 0 0 1-.15-.87h-.04c-.01.22-.08.5-.19.85l-2.11 6.78h-1.51l-2.85-9.44h1.58l1.95 7.1c.06.24.1.53.13.84h.07c.01-.23.07-.52.18-.86l2.16-7.08h1.39l1.96 7.11c.06.24.1.53.13.85h.07c.02-.3.07-.58.15-.85l1.93-7.11h1.5zm-13.27-7.42a2.77 2.77 0 0 0-2.25-.95 2.9 2.9 0 0 0-2.3.97 4.04 4.04 0 0 0-.86 2.74c0 1.13.29 2.02.86 2.65.56.64 1.33.96 2.3.96.98 0 1.73-.32 2.26-.94.52-.63.78-1.53.78-2.7 0-1.2-.26-2.1-.79-2.73zm1.06 6.29c-.85.91-2 1.37-3.42 1.37-1.4 0-2.51-.45-3.35-1.33a4.92 4.92 0 0 1-1.24-3.51c0-1.56.42-2.8 1.28-3.7a4.62 4.62 0 0 1 3.53-1.36c1.4 0 2.5.43 3.29 1.3.8.88 1.19 2.09 1.19 3.6 0 1.51-.43 2.72-1.28 3.63zm-11.4-4.52a2.63 2.63 0 0 0-2.67-2.72c-.91 0-1.63.33-2.17 1-.53.68-.8 1.61-.8 2.8a4 4 0 0 0 .76 2.57c.5.63 1.18.95 2.03.95.83 0 1.52-.3 2.05-.9.54-.61.8-1.38.8-2.31zm0 5.66v-1.6h-.03a3.49 3.49 0 0 1-3.25 1.83 3.5 3.5 0 0 1-2.85-1.29c-.7-.86-1.06-2-1.06-3.43 0-1.56.4-2.82 1.18-3.76a3.88 3.88 0 0 1 3.14-1.42c1.3 0 2.24.5 2.84 1.53h.03v-5.84h1.51v13.98zm-10.5 0v-5.39c0-2-.73-3-2.19-3a2.4 2.4 0 0 0-1.86.85c-.5.56-.76 1.28-.76 2.15v5.39h-1.5v-9.44h1.5v1.56h.04c.7-1.2 1.74-1.8 3.1-1.8 1.03 0 1.82.34 2.37 1.02.54.68.81 1.63.81 2.88v5.78zm-10.12-9.44h1.53v9.44h-1.53zm1.48-2.4a.98.98 0 0 1-.7.28.95.95 0 0 1-.99-.99c0-.26.1-.5.28-.69.2-.19.43-.29.7-.29.3 0 .53.1.72.29.19.19.28.42.28.69 0 .28-.1.52-.3.7zm-31.72-6.69l4.33 1.58v21.3l-4.33 1.57-21.69-4.33v-15.78zm25.27 18.53h-1.81l-2.72-9.67a6.2 6.2 0 0 1-.2-1.34h-.04c-.05.45-.13.9-.25 1.32l-2.74 9.69h-1.8l-3.85-13.22h1.69l2.81 10.14c.12.45.2.89.23 1.33h.04c.03-.38.12-.82.28-1.33l2.93-10.14h1.49l2.79 10.21c.1.38.18.8.22 1.23h.04c.03-.32.11-.74.25-1.27l2.7-10.17h1.67zm-37.47-1.68v-4.67h-4.83v4zm0-5.28v-4.35l-4.83.68v3.67zm6.66 6.2v-5.6h-6.07v4.72zm0-6.2v-5.28l-6.07.9v4.38zm-9.45-9.52l-.79.16v-3.86c0-3.28 1.98-3.77 3.91-4.2 3.59-.82 4.37 1.05 4.37 3.56v2.84l-.78.16v-3.07c0-1.32-.2-3.4-3.43-2.65-2.14.5-3.3 1.2-3.28 3.44zm8.12-5.83c2.5-.37 2.92.37 2.92 3.12v.5l-.78.16v-.66c0-1.77.04-2.62-2.02-2.33a7.18 7.18 0 0 0-.12-.79zm-2.2 1.36c-1.16.5-1.6.85-1.58 2.56v1.04l-.79.16v-1.2c0-2.52.96-2.92 2.28-3.38.05.23.08.5.08.82z"/><clipPath id="ytzpb"><use fill="#fff" xlink:href="#ytzpa"/></clipPath></defs><g><g transform="translate(-720 -4984)"><g><use fill="#fff" fill-opacity="0" stroke="#fff" stroke-miterlimit="50" stroke-width="4" clip-path="url(&quot;#ytzpb&quot;)" xlink:href="#ytzpa"/></g><g><use fill="#fff" xlink:href="#ytzpc"/></g></g></g></svg>