<svg xmlns="http://www.w3.org/2000/svg" xmlns:xlink="http://www.w3.org/1999/xlink" width="172" height="50" viewBox="0 0 172 50"><defs><path id="x0gna" d="M332 4994a10 10 0 0 1 10-10h152a10 10 0 0 1 10 10v30a10 10 0 0 1-10 10H342a10 10 0 0 1-10-10z"/><path id="x0gnc" d="M363.14 4994c-2.48.2-5.99 2.78-5.51 6.6 3.26.12 5.99-3.6 5.51-6.6zm23.08 16.63l2.55-7h.04l2.5 7zm1.49-8.82l-5.85 15.06h2.04l1.68-4.54h6.36l1.64 4.54h2.21l-5.87-15.06zm9.34 4.15v15.05h1.79v-5.6h.04c.2.32.44.59.73.8.28.22.59.4.91.52a4.97 4.97 0 0 0 1.88.36c.83 0 1.55-.15 2.18-.44.62-.3 1.14-.7 1.56-1.21.41-.52.72-1.12.92-1.8a7.68 7.68 0 0 0 0-4.39 5.54 5.54 0 0 0-.94-1.82 4.48 4.48 0 0 0-3.76-1.72 5.2 5.2 0 0 0-2.09.41c-.63.28-1.1.72-1.39 1.32h-.04v-1.48zm8.26 6.92c-.12.5-.3.95-.55 1.34-.26.4-.59.71-1 .95-.42.24-.93.36-1.55.36s-1.15-.12-1.58-.35a3.07 3.07 0 0 1-1.07-.91 3.83 3.83 0 0 1-.6-1.32 6.28 6.28 0 0 1 0-3.05c.11-.49.3-.93.57-1.31.27-.39.61-.7 1.04-.94.42-.24.93-.36 1.53-.36a3 3 0 0 1 2.56 1.24 4 4 0 0 1 .61 1.3c.14.49.2.98.2 1.49 0 .53-.05 1.05-.16 1.56zm4.23-6.92v15.05h1.8v-5.6h.03c.2.32.44.59.73.8.29.22.6.4.92.52a4.97 4.97 0 0 0 1.87.36c.83 0 1.56-.15 2.18-.44.63-.3 1.15-.7 1.56-1.21.42-.52.72-1.12.93-1.8a7.68 7.68 0 0 0-.01-4.39 5.54 5.54 0 0 0-.94-1.82 4.48 4.48 0 0 0-3.76-1.72c-.76 0-1.45.14-2.09.41-.63.28-1.1.72-1.39 1.32h-.04v-1.48zm8.26 6.92c-.11.5-.3.95-.55 1.34-.25.4-.58.71-1 .95-.41.24-.93.36-1.55.36s-1.14-.12-1.58-.35a3.07 3.07 0 0 1-1.06-.91 3.83 3.83 0 0 1-.6-1.32 6.28 6.28 0 0 1-.01-3.05c.12-.49.31-.93.58-1.31.26-.39.6-.7 1.03-.94.42-.24.93-.36 1.54-.36a3 3 0 0 1 2.56 1.24 4 4 0 0 1 .6 1.3c.14.49.2.98.2 1.49 0 .53-.05 1.05-.16 1.56zm20.92-6.67a5.3 5.3 0 0 0-.47-2.13c-.3-.6-.68-1.1-1.18-1.49-.5-.39-1.08-.68-1.74-.86a8.04 8.04 0 0 0-4.16-.01c-.66.17-1.24.44-1.75.8a3.98 3.98 0 0 0-1.7 3.34c0 .68.14 1.26.41 1.71.28.46.64.83 1.1 1.12.46.29.97.52 1.55.7.57.17 1.16.32 1.76.46l1.76.39c.57.12 1.09.29 1.54.5.46.2.83.46 1.1.78.27.32.41.74.41 1.26 0 .55-.11 1-.34 1.35-.22.35-.52.63-.88.83a4 4 0 0 1-1.23.43 6.43 6.43 0 0 1-3-.08c-.54-.14-1-.36-1.4-.65-.4-.3-.73-.67-.98-1.13a3.4 3.4 0 0 1-.36-1.63h-1.9c0 .91.16 1.7.5 2.37.32.66.77 1.21 1.34 1.64a5.9 5.9 0 0 0 1.98.96 8.83 8.83 0 0 0 4.47.07 6 6 0 0 0 1.89-.78 4.42 4.42 0 0 0 1.38-1.39c.35-.56.53-1.25.53-2.05 0-.74-.13-1.36-.4-1.85-.28-.5-.65-.9-1.1-1.22a5.8 5.8 0 0 0-1.55-.77c-.58-.2-1.16-.36-1.76-.5a67.6 67.6 0 0 0-1.76-.39 9.22 9.22 0 0 1-1.55-.45 3.05 3.05 0 0 1-1.1-.7 1.57 1.57 0 0 1-.4-1.13c0-.5.09-.9.28-1.23.19-.33.44-.6.76-.8.31-.19.67-.33 1.08-.41.41-.09.82-.13 1.25-.13 1.03 0 1.89.24 2.56.73.66.48 1.05 1.26 1.16 2.34zm5.25-.25v-3.26h-1.8v3.26h-1.85v1.58h1.86v6.94c0 .5.05.9.15 1.22.1.3.25.55.45.71.2.17.47.29.8.35.33.07.73.1 1.2.1h1.37v-1.58h-.83a6 6 0 0 1-.68-.03.89.89 0 0 1-.41-.14.52.52 0 0 1-.2-.3c-.04-.12-.06-.3-.06-.5v-6.77h2.18v-1.58zm5.72 3.7c.17-.51.42-.94.73-1.3a3.1 3.1 0 0 1 2.4-1.07 3.24 3.24 0 0 1 2.4 1.08c.32.35.56.78.73 1.3.18.5.27 1.1.27 1.75 0 .66-.09 1.25-.27 1.76-.17.51-.41.94-.72 1.29a3.16 3.16 0 0 1-2.4 1.06 3.24 3.24 0 0 1-3.14-2.35 5.41 5.41 0 0 1-.27-1.76c0-.66.1-1.25.27-1.76zm-1.83 4a5.1 5.1 0 0 0 1.01 1.8c.45.5 1 .9 1.67 1.2.66.29 1.41.43 2.27.43.87 0 1.63-.14 2.28-.43.66-.3 1.2-.7 1.66-1.2a5.1 5.1 0 0 0 1-1.8c.23-.7.34-1.44.34-2.24 0-.8-.1-1.55-.33-2.24a4.78 4.78 0 0 0-2.66-3.02 5.5 5.5 0 0 0-2.29-.45c-.86 0-1.61.15-2.27.44a4.76 4.76 0 0 0-2.68 3.03c-.22.7-.33 1.44-.33 2.24 0 .8.11 1.55.33 2.23zm12.29-7.7v10.9h1.79V5012c0-.7.07-1.32.2-1.86.15-.54.37-1 .68-1.38.31-.38.72-.67 1.23-.87.5-.2 1.11-.3 1.83-.3v-1.89a4.02 4.02 0 0 0-2.4.6 4.85 4.85 0 0 0-1.6 1.95h-.05v-2.3zm8 4.4c.03-.41.12-.81.28-1.18a2.9 2.9 0 0 1 2.84-1.89 3.06 3.06 0 0 1 2.86 1.88c.16.38.25.78.28 1.2zm6.21 3.04a2.55 2.55 0 0 1-.96 1.6 3.1 3.1 0 0 1-1.86.53c-.59 0-1.1-.1-1.54-.3a3.01 3.01 0 0 1-1.68-1.92 4.33 4.33 0 0 1-.17-1.36h8.15a8.68 8.68 0 0 0-.18-2.09 6.04 6.04 0 0 0-.8-2.02 4.77 4.77 0 0 0-1.54-1.53c-.64-.4-1.44-.6-2.4-.6a4.94 4.94 0 0 0-3.68 1.6c-.46.5-.81 1.1-1.06 1.8a6.56 6.56 0 0 0-.38 2.27c.03.83.15 1.6.37 2.3.21.7.54 1.3.97 1.8.44.51.98.9 1.61 1.19.64.28 1.4.42 2.27.42 1.23 0 2.26-.31 3.07-.93a4.35 4.35 0 0 0 1.58-2.76zm-110.67-13.15c-2.4 0-3.68 1.4-5.3 1.4-1.93 0-2.93-1.4-5.32-1.4-2.72 0-7.07 2.45-7.07 8.58 0 5.9 4.3 13.14 7.62 13.14 1.74 0 2.5-1.13 4.8-1.13 2.62 0 2.76 1.13 4.74 1.13 3.52 0 6.66-7.43 6.66-7.43s-3.98-1.3-3.98-5.71c0-3.73 3.17-5.45 3.17-5.45s-2.08-3.13-5.32-3.13z"/><clipPath id="x0gnb"><use fill="#fff" xlink:href="#x0gna"/></clipPath></defs><g><g transform="translate(-332 -4984)"><g><use fill="#fff" fill-opacity="0" stroke="#fff" stroke-miterlimit="50" stroke-width="4" clip-path="url(&quot;#x0gnb&quot;)" xlink:href="#x0gna"/></g><g><use fill="#fff" xlink:href="#x0gnc"/></g></g></g></svg>