<svg xmlns="http://www.w3.org/2000/svg" xmlns:xlink="http://www.w3.org/1999/xlink" width="25" height="25" viewBox="0 0 25 25"><defs><path id="jwqfa" d="M206.55 2548.06h-22.09v-3.24h22.09zm0 16.48h-22.09v-15.01h22.09zm.72-21.19h-3.98v-1.62a.73.73 0 1 0-1.46 0v1.62h-3.24v-1.62a.73.73 0 0 0-1.47 0v1.62h-3.24v-1.62a.73.73 0 0 0-1.47 0v1.62h-3.24v-1.62a.73.73 0 0 0-1.46 0v1.62h-3.98c-.4 0-.73.33-.73.74v21.18c0 .4.33.73.73.73h23.54c.4 0 .73-.33.73-.73v-21.18c0-.4-.33-.74-.73-.74z"/><path id="jwqfb" d="M198.29 2558.63h-1.58v-5.94a.69.69 0 0 0-.44-.64.73.73 0 0 0-.77.15l-2.3 2.21a.67.67 0 0 0 0 .97c.29.27.74.27 1.02 0l1.07-1.03v4.28h-1.58a.7.7 0 0 0-.71.68c0 .38.32.69.71.69h4.58c.4 0 .71-.3.71-.69a.7.7 0 0 0-.71-.68z"/></defs><g><g transform="translate(-183 -2541)"><use fill="#fff" xlink:href="#jwqfa"/></g><g transform="translate(-183 -2541)"><use fill="#fff" xlink:href="#jwqfb"/></g></g></svg>