<svg xmlns="http://www.w3.org/2000/svg" xmlns:xlink="http://www.w3.org/1999/xlink" width="172" height="50" viewBox="0 0 172 50"><defs><path id="vgb8a" d="M526 4994a10 10 0 0 1 10-10h152a10 10 0 0 1 10 10v30a10 10 0 0 1-10 10H536a10 10 0 0 1-10-10z"/><path id="vgb8c" d="M666.95 5014.24a3.5 3.5 0 0 0 1.54-1.77v-2.19h-2.85c-1.09 0-1.99.25-2.7.73-.7.5-1.07 1.08-1.07 1.77 0 .65.23 1.17.68 1.56.46.4 1.08.6 1.87.6 1.03 0 1.77-.24 2.53-.7zm-16.4-8.93c-1.57 0-3.07 1.24-3.72 2.32v5.03c.65 1.09 2.15 2.38 3.71 2.38 2.53 0 3.95-2.12 3.95-4.88 0-2.75-1.42-4.85-3.95-4.85zm6.89-5.17h1.21v15.72h-1.21zm14.83 19.05c.25.12.7.2.98.2.74 0 1.26-.32 1.72-1.4l.88-2.03-4.77-11.48h1.35l4.1 9.95 4.05-9.95h1.37l-5.82 13.89c-.6 1.43-1.56 2.12-2.86 2.12-.4 0-.91-.07-1.21-.17l.2-1.13m-3.73-4.4a7 7 0 0 1-.05-.88c-.42.62-1 1.13-1.76 1.54-.75.4-1.47.6-2.45.6-1.18 0-2.1-.3-2.76-.89-.65-.6-.98-1.4-.98-2.42s.48-1.85 1.43-2.48a6.5 6.5 0 0 1 3.69-.96h2.83v-1.41c0-.82-.28-1.46-.83-1.92a3.5 3.5 0 0 0-2.32-.7c-.91 0-1.66.21-2.22.63-.56.43-.84.96-.84 1.6h-1.25l-.02-.06c-.05-.86.34-1.62 1.17-2.27.82-.65 1.9-.98 3.23-.98a5 5 0 0 1 3.2.97 3.3 3.3 0 0 1 1.21 2.75v5.62a7.52 7.52 0 0 0 .31 2.3h-1.4l-.19-1.03zm-70.88-3.58c0-2.13-1-6.2-3.98-6.2-.8 0-1.58.3-2.16.81-.94.85-1.1 1.92-1.1 2.97 0 2.4 1.17 6.35 4.07 6.35.94 0 1.9-.46 2.45-1.24.58-.77.72-1.74.72-2.69zm-11.1 3.81l-3.21.75c-1.3.2-2.47.39-3.71.39-6.2 0-8.57-4.62-8.57-8.24 0-4.41 3.35-8.5 9.08-8.5a13 13 0 0 1 3.45.47c1.68.48 2.47 1.07 2.96 1.42l-1.86 1.8-.8.17.57-.9c-.76-.76-2.16-2.15-4.81-2.15-3.55 0-6.23 2.73-6.23 6.72 0 4.27 3.06 8.3 7.96 8.3 1.44 0 2.18-.3 2.86-.57v-3.66l-3.4.18 1.8-.98h4.77l-.59.57c-.15.13-.18.18-.22.36-.02.2-.05.87-.05 1.1v2.77m60.28 5.2h-1.21v-15.74h1.21v1.8a4.8 4.8 0 0 1 3.91-2.08c3.01 0 5.04 2.3 5.04 5.97 0 3.63-2.03 5.99-5.04 5.99-1.58 0-3-.83-3.9-2.13zm-36.41-9c0-2.14-1-6.22-3.98-6.22-.8 0-1.6.31-2.17.82-.93.85-1.1 1.92-1.1 2.97 0 2.4 1.17 6.35 4.08 6.35.94 0 1.9-.46 2.45-1.24a4.4 4.4 0 0 0 .72-2.69zm-22.34-1.08c0-3.17 2.57-5.9 6.21-5.9 3.53 0 5.73 2.8 5.73 5.73 0 2.87-2.18 5.9-6.09 5.9-3.81 0-5.85-3-5.85-5.73zm33.08-.32c0-1.74-1.03-4.46-3.02-4.46-.62 0-1.3.32-1.68.8-.4.51-.53 1.17-.53 1.8 0 1.62.94 4.31 3 4.31.6 0 1.25-.3 1.63-.67.55-.56.6-1.34.6-1.78zm-20.32.32c0-3.17 2.57-5.9 6.22-5.9 3.52 0 5.73 2.8 5.73 5.73a5.9 5.9 0 0 1-6.1 5.9c-3.8 0-5.85-3-5.85-5.73zm18.48 6.05c-.22 0-1.52.05-2.52.39-.53.2-2.07.78-2.07 2.5s1.66 2.96 4.23 2.96c2.3 0 3.52-1.12 3.52-2.62 0-1.24-.79-1.9-2.61-3.2-.2-.03-.31-.03-.55-.03zm17.88-9.06c0-.97-1.08-2.08-2.37-2.08-.96 0-2.75.75-2.75 3.36 0 .41.04.84.07 1.28l4.36-1.91c.45-.17.7-.31.7-.65zm-9.07 6.6c0 .95.16 1.1.95 1.17l1.23.12-.9.53h-4.22c.56-.73.65-.8.65-1.28v-14.97h-1.87l1.8-.88h3.42c-.74.44-.96.7-1.06 1.55v13.76m-4.85-5.02c0 1.8-1 2.65-2.01 3.45-.31.31-.68.66-.68 1.19 0 .53.37.82.63 1.04l.86.68c1.06.9 2.02 1.72 2.02 3.4 0 2.28-2.19 4.58-6.32 4.58-3.48 0-5.16-1.67-5.16-3.47 0-.87.43-2.1 1.85-2.96 1.5-.92 3.5-1.04 4.59-1.11-.34-.44-.72-.9-.72-1.65 0-.42.12-.66.24-.95-.27.03-.53.05-.77.05a3.82 3.82 0 0 1-3.99-3.81c0-1.12.5-2.36 1.54-3.25a6.5 6.5 0 0 1 4.3-1.34h4.95l-1.54.88h-1.5a4.1 4.1 0 0 1 1.7 3.27zm15.49 6.3c-.27.15-.53.33-.8.45-.79.36-1.6.45-2.32.45a5.1 5.1 0 0 1-3.2-.94 6.3 6.3 0 0 1-2.44-5.12c0-3.76 3.03-5.6 5.5-5.6.86 0 1.75.22 2.47.68 1.2.8 1.5 1.84 1.68 2.4l-5.64 2.3-1.85.15c.6 3.08 2.66 4.88 4.94 4.88 1.14 0 1.99-.38 2.76-.77 0 0 .16-.08.05.03z"/><path id="vgb8d" d="M555.57 5005.73l-3.15 3.5 3.03 3.45 4.65-2.63c.86-.49.86-1.27 0-1.76zm-12.34-7l8.63 9.87 2.92-3.31zm11.47 14.37l-2.85-3.23-8.87 9.86zm-13.06 7.07l9.65-10.93-9.73-11.04c-.34.14-.56.51-.56 1.07v19.8c0 .6.25.99.64 1.1z"/><clipPath id="vgb8b"><use fill="#fff" xlink:href="#vgb8a"/></clipPath></defs><g><g transform="translate(-526 -4984)"><g><use fill="#fff" fill-opacity="0" stroke="#fff" stroke-miterlimit="50" stroke-width="4" clip-path="url(&quot;#vgb8b&quot;)" xlink:href="#vgb8a"/></g><g><use fill="#fff" xlink:href="#vgb8c"/></g><g><use fill="#fff" xlink:href="#vgb8d"/></g></g></g></svg>