<svg xmlns="http://www.w3.org/2000/svg" xmlns:xlink="http://www.w3.org/1999/xlink" width="198" height="121" viewBox="0 0 198 121"><defs><path id="d479a" d="M896.74 232c-.6-.3-1.18-.9-1.78-1.8-.59-.9-.69-1.81-.2-2.81 1.2-1.9 24.8-14.04 29.83-16.55 5.04-2.5 11.06-5.01 17.98-7.52 6.9-2.5 14.22-4.81 22.02-6.81 7.8-2.11 15.01-3.71 21.63-4.82 6.61-1.1 22.61-2.5 27.25-2.6 5.53-.2 11.26-.9 11.76 1.3.2.6 1.18 3.5-1.68 3.7-7.31 1.01-29.04 3.42-37.93 5.52a565.59 565.59 0 0 0-26.36 6.92c-8.6 2.5-16.7 5.11-24.2 7.92-7.5 2.81-33.87 15.24-38.32 17.55z"/><path id="d479c" d="M864.74 217.46c.6-7.62 1.38-15.24 2.47-22.86.99-7.62 1.98-15.14 2.96-22.46.99-7.32 1.98-14.34 3.06-21.06a452.16 452.16 0 0 0 2.67-18.75c.2-1.1.6-1.9 1.28-2.4.7-.5 1.49-.7 2.28-.6.79 0 1.48.3 2.17.9.6.5.99 1.2.99 2 .2 1.8.1 4.92-.3 9.33-.5 4.4-1.09 9.52-1.88 15.24-.79 5.71-1.68 11.83-2.56 18.14-.9 6.42-1.78 12.44-2.57 18.05a631.62 631.62 0 0 0-1.88 14.94c-.5 4.31-.6 7.22-.5 8.82a77.75 77.75 0 0 1 15.32-6.11c5.62-1.5 11.06-1.7 16.2-.5.78.2 1.97 2.2 1.47 3.1-.59.8-1.18 1.1-1.87.9-3.56-.5-7.31-.3-11.46.5-4.15.81-7.3 1.81-9.78 3.02-1.58.7-3.26 1.6-5.13 2.6a47.2 47.2 0 0 0-5.24 3.41 36.76 36.76 0 0 0-4.54 4.21 18.52 18.52 0 0 0-3.36 5.02c-.2.4-.2.8-.1 1.1.1.3.3.6.5.9.2.3.3.6.3.8 0 .3-.3.5-.7.7-1.77.4-3.85-1.4-4.24-2.3-.4-.9-.3-2.1.3-3.6.59-1.51 1.47-3.12 2.66-4.92l.79-1z"/><path id="d479e" d="M922.91 173.44c.6.3.7 1.3.3 3-.4 1.7-1 3.81-1.88 6.22a96.03 96.03 0 0 1-3.26 7.82c-1.28 2.8-2.67 5.52-3.95 8.02a17.73 17.73 0 0 1-7.3 7.72c-3.07 1.7-5.74 2-8.1 1-2.28-1-3.86-3.6-4.55-7.71-.69-4.12.3-10.13 3.16-18.15.99-2.81 2.47-5.22 4.35-7.22 1.87-2 3.75-3.41 5.73-4.21 1.87-.8 3.55-.9 4.83-.3 1.29.6 1.88 2 1.58 4.3-.39 2.61-1.38 5.32-2.96 8.23-1.58 2.9-3.55 4.91-6.02 5.92-.8.3-1.09.8-1.09 1.6-.1.8-.2 2-.3 3.5-.1 1.51-.1 3.02 0 4.52.1 1.4.3 2.7.7 3.71.4 1 .89 1.4 1.68 1.3 3.16-2.2 6.02-6.01 8.49-11.53a134.36 134.36 0 0 0 6.52-17.54c.2-.2.59-.3.98-.5.4.1.8.1 1.1.3zm-18.47 11.93c0 .1.2.2.4.1.1 0 .4-.3.79-.7.4-.5.79-1.1 1.08-1.9.3-.81.6-1.71.8-2.82.2-1.1.2-2.2-.1-3.3-.6 1.3-1.1 2.6-1.58 4-.5 1.41-.9 2.81-1.19 4.32z"/><path id="d479g" d="M925.18 165.93c.6-.5 1.19-.7 1.88-.6.69.1 1.28.1 1.97.1 1.68.2 2.47 1.2 2.28 3.1l-.8 7.82c-.2 1.7-.39 3.41-.69 5.02-.3 1.6-.49 3.3-.69 5-.2 1.61-.3 2.82-.5 3.52-.09.7-.19 1.4-.29 2-.1.6-.2 1.3-.2 2 0 .71-.2 1.91-.39 3.52-.2 1.5-.99 2.3-2.17 2.6-.6.1-1.38.2-2.08.3-.79.1-1.48.1-2.17-.1-.99-.3-1.48-.6-1.68-.9-.2-.3-.4-1-.59-2-.1-1.2-.2-2.3-.1-3.51.1-1.2.1-2.3.3-3.41.1-1.7.1-3.1.2-4.11.1-1 .2-1.9.3-2.7.09-.81.19-1.71.39-2.72.1-1 .3-2.4.49-4.1.2-1.51.5-2.81.89-4.12.4-1.3.69-2.7 1.08-4.2-.1-1.01.9-1.91 2.57-2.51zm8-11.03c-.59.9-.99 1.7-1.38 2.5-.4.8-.7 1.7-1.19 2.51-.59.9-1.48 1.4-2.76 1.5-.6.2-1.19.1-1.58-.3-.4-.4-.6-.8-.4-1.2l.6-2.4c.2-.8.4-1.61.59-2.21.2-.5.69-.9 1.48-1 1.28-.3 2.67-.2 4.35.2.2.1.3.2.3.4z"/><path id="d479i" d="M955.3 121.7a230.42 230.42 0 0 0-4.05 15.65 360.56 360.56 0 0 0-2.67 13.43c-.69 3.91-1.18 7.12-1.38 9.53-.2 2.4-.4 3.7-.3 4 .6-.5 1.68-1.6 3.17-3.3 1.48-1.7 3.06-3.61 4.54-5.52 1.58-1.9 2.96-3.7 4.24-5.41 1.29-1.7 1.88-2.7 1.98-3.21 0-.3.3-.4.89-.5.6-.1 1.08 0 1.38.2.8.4.8 1.5-.1 3.3a44.16 44.16 0 0 1-3.75 5.92 75.6 75.6 0 0 1-4.94 6.02c-1.68 1.9-2.86 3.1-3.55 3.8a38.15 38.15 0 0 1-3.36 3.12c-.89.7-1.19 1.6-.89 2.9.3 1.3 1.28 3.21 2.96 5.82 1.68 2.6 4.25 6.52 7.7 11.83.5.8.7 1.5.5 2.1-.2.6-.6.9-1.19 1.01-.59.1-1.38-.1-2.27-.5a6.47 6.47 0 0 1-2.56-2.2c-.8-1.21-1.68-2.41-2.47-3.72-.8-1.3-1.58-2.4-2.28-3.3-.69-1.2-1.38-2.41-2.07-3.52.1-.3.1-.2 0 .2-.1.3-.2.9-.3 1.81-.1.9-.39 2.4-.69 4.41-.4 1.9-.69 3.51-.89 4.81-.2 1.3-.49 2.31-.88 3.21-.4.9-1 1.5-1.68 1.8-.7.4-1.78.6-3.26.7-1.58 0-2.37-.5-2.47-1.4-.1-.9 0-2.1.2-3.6.89-8.73 1.87-16.85 2.96-24.47a785.07 785.07 0 0 1 3.36-20.35c1.08-5.92 2.17-10.93 3.06-15.04a69.66 69.66 0 0 1 2.37-8.52c.4-.8 1.08-1.5 2.07-1.9.99-.4 1.98-.61 3.16-.61 1.09 0 1.98.1 2.67.4.7.1.89.5.79 1.1z"/><path id="d479k" d="M992.83 158.5c.1-.7.6-1 1.39-.9.79.1 1.08.6.88 1.6-1.77 11.04-3.85 18.76-6.12 23.27-2.27 4.51-4.44 6.82-6.42 7.02-1.97.1-3.65-1.4-5.03-4.72-1.39-3.2-1.98-7.11-1.78-11.53.1-2.9-.1-4.3-.4-4.1-.4.2-.79 1.1-1.38 2.6-.6 1.5-1.09 3.2-1.58 5.21-.5 2.01-.79 3.11-.99 3.61-.89 2.81-2.07 5.02-3.55 6.62-1.48 1.6-3.36 2.2-5.63 2-.9-.1-1.68-1-2.27-2.6-.6-1.7-.9-3.71-1-6.12-.09-2.4.2-5.01.7-7.82a38.1 38.1 0 0 1 2.57-7.82 17.34 17.34 0 0 1 4.74-5.91c1.97-1.6 4.44-2.3 7.3-2.3.8 0 1.29-.91 1.69-2.72 0-.4.59-.7 1.48-1a12.58 12.58 0 0 1 5.83-.1c.78.2 1.18.6 1.18 1.2-1.38 6.92-2.17 12.44-2.37 16.35-.2 4-.1 6.92.2 8.72.4 1.9.88 2.9 1.48 3.2.69.3 1.08.2 1.38-.3 1.19-1.3 2.27-4.1 3.36-8.41 1.38-4.42 2.66-9.43 4.34-15.04zm-26.37 24.07c.1-.3.4-1.4 1.1-3.41.68-2 1.37-4.21 2.16-6.52.8-2.3 1.48-4.5 2.18-6.51.69-2 .98-3.21.89-3.61-1.49.6-2.77 1.9-3.86 4.1a30.08 30.08 0 0 0-2.47 6.93c-.59 2.4-.88 4.6-.98 6.51-.1 1.9.1 2.81.5 2.91.19-.2.39-.3.48-.4z"/><path id="d479m" d="M949.97 221.57h1.58c.2 0 .3.1.3.3v6.52c0 .1.1.2.19.1.89-1 2.07-1.5 3.65-1.5 1.49 0 2.77.6 3.86 1.7a5.95 5.95 0 0 1 1.58 4.31v1.3c0 1.8-.5 3.31-1.58 4.42a4.89 4.89 0 0 1-3.86 1.6c-1.48 0-2.76-.5-3.75-1.6-.1-.1-.2-.1-.2.1l-.1 1.2c0 .1-.1.2-.3.2h-1.37c-.2 0-.3-.1-.3-.3v-18.05c0-.2.1-.3.3-.3zm2.17 8.52c-.2.2-.3.4-.3.7v5.62c0 .3.1.5.3.7.79.9 1.78 1.3 3.16 1.3 2.17 0 3.65-1.7 3.65-4.2V233c0-2.5-1.48-4.21-3.65-4.21a4.2 4.2 0 0 0-3.16 1.3z"/><path id="d479n" d="M966.17 227.48c0-.2.1-.3.3-.3h1.58c.2 0 .3.1.3.3v7.62c0 2.2.88 3.21 2.76 3.21 1.18 0 2.17-.5 3.06-1.4.2-.2.3-.4.3-.7v-8.83c0-.2.1-.3.3-.3h1.57c.2 0 .3.1.3.3v12.33c0 .2-.1.3-.3.3h-1.38c-.1 0-.2-.1-.3-.2l-.1-1.3c0-.1-.2-.1-.2-.1a4.75 4.75 0 0 1-3.84 1.8c-2.77 0-4.35-1.8-4.35-5.1v-7.63z"/><path id="d479o" d="M989.57 227.98c.2.1.2.3.1.4l-.79 1c-.1.2-.3.2-.4.1-.69-.4-1.28-.7-1.97-.7-1.28 0-1.97.8-1.97 1.6v.1c0 1.11.69 1.51 2.56 2.01 1.29.3 2.27.7 2.97 1.3.69.5.98 1.31.98 2.51v.1c0 2.21-1.58 4.02-4.54 4.02-1.58 0-3.06-.5-4.25-1.4-.2-.1-.2-.2-.1-.4l.8-1.01c.1-.2.3-.2.39-.1.89.7 1.98 1 2.96 1 1.68 0 2.47-.9 2.47-2v-.2c0-1.3-.79-1.71-2.76-2.21-2.47-.6-3.66-1.5-3.66-3.61v-.1c0-1 .4-1.9 1.19-2.5.79-.7 1.78-1.01 2.86-1.01 1.19 0 2.27.4 3.16 1.1z"/><path id="d479p" d="M995.79 224.57c.5.4 1.28.4 1.78 0 .5-.5.5-1.3 0-1.8s-1.29-.5-1.78 0c-.5.5-.5 1.2 0 1.8zm-.3 15.14c0 .2.1.3.3.3h1.58c.2 0 .3-.1.3-.3v-12.33c0-.2-.1-.3-.3-.3h-1.58c-.2 0-.3.1-.3.3z"/><path id="d479q" d="M1003.5 227.38c0-.2.1-.3.3-.3h1.38c.2 0 .3.1.3.2l.1 1.3c0 .1.2.1.2.1.98-1.2 2.36-1.7 4.04-1.7 2.86 0 4.44 1.8 4.44 5.11v7.72c0 .2-.1.3-.3.3h-1.57c-.2 0-.3-.1-.3-.3v-7.72c0-2.1-.99-3.2-2.86-3.2-1.29 0-2.37.4-3.16 1.4-.2.2-.3.4-.3.7v8.82c0 .2-.1.3-.3.3h-1.57c-.2 0-.3-.1-.3-.3v-12.43z"/><path id="d479r" d="M1020.78 228.48a5.61 5.61 0 0 1 4.15-1.7c1.68 0 3.06.5 4.15 1.6 1.08 1.1 1.58 2.61 1.58 4.42v.9c0 .2-.1.3-.3.3h-8.79c-.2 0-.2.1-.2.2 0 2.5 1.58 4.11 4.05 4.11.99 0 1.88-.3 2.67-.9.1-.1.3-.1.4 0l1.08.9c.2.2.2.3 0 .4a6.22 6.22 0 0 1-4.05 1.4c-1.88 0-3.36-.5-4.54-1.7a5.79 5.79 0 0 1-1.78-4.41v-1.1c0-1.8.5-3.31 1.58-4.42zm.6 3.91c0 .2.1.2.19.2h6.62c.2 0 .2-.1.2-.2-.2-2.3-1.39-3.7-3.46-3.7-1.98 0-3.36 1.4-3.56 3.7z"/><path id="d479s" d="M1043.1 227.98c.2.1.2.3.1.4l-.79 1c-.1.2-.3.2-.4.1-.69-.4-1.28-.7-1.97-.7-1.28 0-1.97.8-1.97 1.6v.1c0 1.11.69 1.51 2.56 2.01 1.29.3 2.27.7 2.97 1.3.69.5.98 1.31.98 2.51v.1c0 2.21-1.58 4.02-4.54 4.02-1.58 0-3.06-.5-4.25-1.4-.2-.1-.2-.2-.1-.4l.8-1.01c.1-.2.3-.2.39-.1.89.7 1.98 1 2.96 1 1.68 0 2.47-.9 2.47-2v-.2c0-1.3-.79-1.71-2.76-2.21-2.47-.6-3.66-1.5-3.66-3.61v-.1c0-1 .4-1.9 1.19-2.5.79-.7 1.78-1.01 2.86-1.01 1.09 0 2.17.4 3.16 1.1z"/><path id="d479t" d="M1056.23 227.98c.2.1.2.3.1.4l-.79 1c-.1.2-.3.2-.4.1-.69-.4-1.28-.7-1.97-.7-1.28 0-1.97.8-1.97 1.6v.1c0 1.11.69 1.51 2.56 2.01 1.29.3 2.27.7 2.97 1.3.69.5.98 1.31.98 2.51v.1c0 2.21-1.58 4.02-4.54 4.02-1.58 0-3.06-.5-4.25-1.4-.2-.1-.2-.2-.1-.4l.8-1.01c.1-.2.3-.2.39-.1.89.7 1.98 1 2.96 1 1.68 0 2.47-.9 2.47-2v-.2c0-1.3-.79-1.71-2.76-2.21-2.47-.6-3.66-1.5-3.66-3.61v-.1c0-1 .4-1.9 1.19-2.5.79-.7 1.78-1.01 2.86-1.01 1.09 0 2.17.4 3.16 1.1z"/><linearGradient id="d479b" x1="855.49" x2="986.37" y1="161.61" y2="219.36" gradientUnits="userSpaceOnUse"><stop offset="0" stop-color="#fa6e71"/><stop offset="1" stop-color="#c83f80"/></linearGradient><linearGradient id="d479d" x1="846.4" x2="892.3" y1="61.78" y2="205.09" gradientUnits="userSpaceOnUse"><stop offset="0" stop-color="#fa6e71"/><stop offset="1" stop-color="#c83f80"/></linearGradient><linearGradient id="d479f" x1="885.2" x2="914.63" y1="144.94" y2="196.51" gradientUnits="userSpaceOnUse"><stop offset="0" stop-color="#fa6e71"/><stop offset="1" stop-color="#c83f80"/></linearGradient><linearGradient id="d479h" x1="914.68" x2="928.92" y1="124.97" y2="186.84" gradientUnits="userSpaceOnUse"><stop offset="0" stop-color="#fa6e71"/><stop offset="1" stop-color="#c83f80"/></linearGradient><linearGradient id="d479j" x1="925.98" x2="954.99" y1="72.37" y2="173.88" gradientUnits="userSpaceOnUse"><stop offset="0" stop-color="#fa6e71"/><stop offset="1" stop-color="#c83f80"/></linearGradient><linearGradient id="d479l" x1="948.18" x2="984.34" y1="129.18" y2="178.66" gradientUnits="userSpaceOnUse"><stop offset="0" stop-color="#fa6e71"/><stop offset="1" stop-color="#c83f80"/></linearGradient></defs><g><g transform="translate(-860 -120)"><g><g><use fill="url(#d479b)" xlink:href="#d479a"/></g><g><use fill="url(#d479d)" xlink:href="#d479c"/></g><g><use fill="url(#d479f)" xlink:href="#d479e"/></g><g><use fill="url(#d479h)" xlink:href="#d479g"/></g><g><use fill="url(#d479j)" xlink:href="#d479i"/></g><g><use fill="url(#d479l)" xlink:href="#d479k"/></g></g><g><g><use fill="#6c6d6c" xlink:href="#d479m"/></g><g><use fill="#6c6d6c" xlink:href="#d479n"/></g><g><use fill="#6c6d6c" xlink:href="#d479o"/></g><g><use fill="#6c6d6c" xlink:href="#d479p"/></g><g><use fill="#6c6d6c" xlink:href="#d479q"/></g><g><use fill="#6c6d6c" xlink:href="#d479r"/></g><g><use fill="#6c6d6c" xlink:href="#d479s"/></g><g><use fill="#6c6d6c" xlink:href="#d479t"/></g></g></g></g></svg>