<svg xmlns="http://www.w3.org/2000/svg" xmlns:xlink="http://www.w3.org/1999/xlink" width="153" height="153" viewBox="0 0 153 153"><defs><path id="wxmsa" d="M396 1576.5a22.5 22.5 0 1 1 45 0 22.5 22.5 0 0 1-45 0z"/><path id="wxmsd" d="M423.63 1581.82l-5.46-5.9 3.27-2.1a.41.41 0 0 0 .07-.65h-.01a.43.43 0 0 0-.53-.06l-3.52 2.27-7.47-2.3 18.2-4.62-5.12 3.3a.42.42 0 0 0-.07.65c.14.15.36.17.53.06l1.87-1.2 4.21-2.72zm-6.96-1.61l-.9-4.47 1.5.47 2.07 2.23zm14.33-12.82l-.01-.06a.42.42 0 0 0-.02-.06v-.01a.43.43 0 0 0-.07-.1v-.01a.42.42 0 0 0-.23-.14h-.2l-22.15 5.62a.42.42 0 0 0-.32.4c0 .18.12.35.3.4l6.54 2.03 1.12 5.52a.42.42 0 0 0 .42.34c.08 0 .16-.03.23-.07l3.31-2.19 3.53 3.8a.43.43 0 0 0 .7-.11l6.81-15.16.03-.06v-.07c.01-.03.01-.05 0-.07z"/><path id="wxmse" d="M409.58 1580h-6.16c-.23 0-.42.22-.42.5s.19.5.42.5h6.16c.23 0 .42-.22.42-.5s-.19-.5-.42-.5z"/><path id="wxmsf" d="M431.54 1585h-3.08c-.25 0-.46.22-.46.5s.2.5.46.5h3.08c.25 0 .46-.22.46-.5s-.2-.5-.46-.5z"/><path id="wxmsg" d="M414.5 1583h-4a.5.5 0 1 0 0 1h4a.5.5 0 1 0 0-1z"/><path id="wxmsh" d="M415.45 1590h-2.9c-.3 0-.55.22-.55.5s.24.5.55.5h2.9c.3 0 .55-.22.55-.5s-.24-.5-.55-.5z"/><mask id="wxmsc" width="2" height="2" x="-1" y="-1"><path fill="#fff" d="M396 1554h45v45h-45z"/><use xlink:href="#wxmsa"/></mask><filter id="wxmsb" width="235" height="287" x="301" y="1459" filterUnits="userSpaceOnUse"><feOffset dy="52" in="SourceGraphic" result="FeOffset1025Out"/><feGaussianBlur in="FeOffset1025Out" result="FeGaussianBlur1026Out" stdDeviation="34 34"/></filter></defs><g><g transform="translate(-343 -1552)"><g><g filter="url(#wxmsb)"><use fill="none" stroke-opacity=".09" stroke-width="0" mask="url(&quot;#wxmsc&quot;)" xlink:href="#wxmsa"/><use fill-opacity=".09" xlink:href="#wxmsa"/></g><use fill="#cd457e" xlink:href="#wxmsa"/></g><g><g><use fill="#fff" xlink:href="#wxmsd"/></g><g><use fill="#fff" xlink:href="#wxmse"/></g><g><use fill="#fff" xlink:href="#wxmsf"/></g><g><use fill="#fff" xlink:href="#wxmsg"/></g><g><use fill="#fff" xlink:href="#wxmsh"/></g></g></g></g></svg>