<svg xmlns="http://www.w3.org/2000/svg" viewBox="0 0 31 31">
  <defs>
    <style>
      .cls-1 {
        fill: #6d6d6d;
      }

      .cls-2 {
        fill: none;
        stroke: #6d6d6d;
        stroke-miterlimit: 10;
      }
    </style>
  </defs>
  <g id="twitter" transform="translate(0.5 0.5)">
    <path id="Shape" class="cls-1" d="M16.315,1.582a6.759,6.759,0,0,1-1.925.528A3.368,3.368,0,0,0,15.863.255a6.921,6.921,0,0,1-2.129.807,3.35,3.35,0,0,0-5.8,2.287,3.418,3.418,0,0,0,.087.766A9.5,9.5,0,0,1,1.116.623,3.29,3.29,0,0,0,.663,2.309,3.35,3.35,0,0,0,2.153,5.1,3.347,3.347,0,0,1,.635,4.679V4.72A3.354,3.354,0,0,0,3.323,8.008a3.406,3.406,0,0,1-.883.116,3.3,3.3,0,0,1-.623-.059,3.359,3.359,0,0,0,3.134,2.328A6.716,6.716,0,0,1,.8,11.826,6.942,6.942,0,0,1,0,11.78a9.528,9.528,0,0,0,5.146,1.5,9.466,9.466,0,0,0,9.536-9.526c0-.143,0-.286-.01-.429a6.769,6.769,0,0,0,1.674-1.736Z" transform="translate(6.771 8.267)"/>
    <circle id="Oval_4" data-name="Oval 4" class="cls-2" cx="15" cy="15" r="15"/>
  </g>
</svg>
